<?xml version="1.0" encoding="UTF-8" standalone="no"?>
<!-- Created with Inkscape (http://www.inkscape.org/) -->

<svg
   width="100.2"
   height="40"
   viewBox="0 0 490.70175 195.73668"
   version="1.1"
   id="svg1"
   inkscape:version="1.3.2 (091e20e, 2023-11-25)"
   sodipodi:docname="yew-nav-icon.svg"
   xmlns:inkscape="http://www.inkscape.org/namespaces/inkscape"
   xmlns:sodipodi="http://sodipodi.sourceforge.net/DTD/sodipodi-0.dtd"
   xmlns="http://www.w3.org/2000/svg"
   xmlns:svg="http://www.w3.org/2000/svg">
  <sodipodi:namedview
     id="namedview1"
     pagecolor="#ffffff"
     bordercolor="#000000"
     borderopacity="0.25"
     inkscape:showpageshadow="2"
     inkscape:pageopacity="0.0"
     inkscape:pagecheckerboard="0"
     inkscape:deskcolor="#d1d1d1"
     inkscape:document-units="px"
     inkscape:zoom="0.7521043"
     inkscape:cx="439.43374"
     inkscape:cy="69.804149"
     inkscape:window-width="2560"
     inkscape:window-height="1440"
     inkscape:window-x="0"
     inkscape:window-y="0"
     inkscape:window-maximized="0"
     inkscape:current-layer="layer1" />
  <defs
     id="defs1">
    <linearGradient
       id="swatch96">
      <stop
         style="stop-color:#ffffff;stop-opacity:1;"
         offset="0"
         id="stop96" />
    </linearGradient>
    <clipPath
       clipPathUnits="userSpaceOnUse"
       id="clipPath183">
      <path
         id="path183"
         style="-inkscape-font-specification:'Inter Heavy';display:inline;fill:#000000;fill-opacity:1;stroke:none;stroke-width:1.01392;stroke-dasharray:none;stroke-opacity:1;paint-order:stroke markers fill"
         d="m 170.8535,79.800781 c -45.65332,8.68e-4 -91.306655,5.78e-4 -136.959955,0.0022 -1.259022,0.02428 -2.398521,1.114505 -2.396357,2.348295 -0.0244,0.797207 0.0023,1.595021 -0.0095,2.392497 0.0013,39.815277 2.98e-4,79.630637 0.0031,119.445867 0.03442,1.21102 1.137606,2.30636 2.39337,2.31265 0.801473,0.0289 1.603808,-0.002 2.405659,0.0108 45.05315,-10e-4 90.106383,-6.7e-4 135.159483,-0.003 1.2411,-0.0403 2.35868,-1.11154 2.36478,-2.32916 0.0297,-0.77185 -0.002,-1.54455 0.0111,-2.31676 -10e-4,-39.85082 -6.8e-4,-79.70171 -0.004,-119.552481 -0.0419,-1.203568 -1.13504,-2.284556 -2.38132,-2.302322 -0.19526,-0.01511 -0.39121,-0.0088 -0.58684,-0.0081 z M 72.701323,120.58664 c 1.916173,3.63846 3.834745,7.27556 5.739184,10.91981 1.792073,-3.64258 3.593587,-7.28071 5.3932,-10.91981 4.824001,0 9.648003,0 14.472007,0 -0.956725,1.69593 -1.913791,3.39167 -2.870264,5.08774 8.61392,-1.2e-4 17.22784,-2.2e-4 25.84175,-4.5e-4 0.77919,3.73352 1.58225,7.46242 2.37147,11.19382 0.14168,0.4788 0.28336,0.95761 0.42504,1.43641 0.21457,-0.69748 0.47329,-1.38342 0.61564,-2.0998 0.8195,-3.51115 1.65888,-7.01785 2.47142,-10.53043 3.46584,0 6.93167,0 10.3975,0 0.86128,3.72619 1.7536,7.44582 2.62312,11.17022 0.15167,0.47667 0.30334,0.95334 0.455,1.43001 0.19989,-0.70241 0.44386,-1.39423 0.57169,-2.11397 0.74016,-3.49662 1.50022,-6.98819 2.23555,-10.48582 4.03324,0 8.06647,0 12.09971,0 -2.89693,10.6275 -5.79387,21.25501 -8.6908,31.88252 -3.7996,0 -7.5992,0 -11.3988,0 -0.88163,-3.54032 -1.78675,-7.07511 -2.68526,-10.61138 -0.13617,-0.4902 -0.27234,-0.9804 -0.40851,-1.4706 -0.32861,1.14687 -0.62771,2.30116 -0.91491,3.45843 -0.72732,2.87444 -1.46693,5.74589 -2.1802,8.62355 -3.79945,0 -7.5989,0 -11.39836,0 -0.10964,-0.37526 -0.19269,-0.76076 -0.31899,-1.1296 -0.19406,-0.34998 -0.38812,-0.69995 -0.58218,-1.04993 -0.0952,0.41626 -0.21894,0.82924 -0.29637,1.24755 0,0.31051 0,0.62103 0,0.93154 -8.6768,0 -17.353595,0 -26.030393,0 -0.0023,-7.55627 0.0046,-15.11257 -0.0035,-22.66884 -6.86e-4,-0.23011 -0.0016,-0.46022 -0.0023,-0.69034 -2.018945,3.5519 -4.018455,7.11422 -6.028849,10.6707 0,4.22964 0,8.45928 0,12.68892 -4.11385,0 -8.2277,0 -12.34155,0 0,-4.22732 0,-8.45464 0,-12.68197 -4.704626,-8.09603 -9.408981,-16.19221 -14.113504,-24.28829 4.850824,0 9.701647,0 14.55247,0 z m 29.148297,15.18888 c 0,0.38303 0,0.76607 0,1.14911 3.46405,0 6.92809,0 10.39213,0 -0.14455,-0.53144 -0.2887,-1.06298 -0.4336,-1.59432 -3.31951,0 -6.63902,0 -9.95853,0 0,0.1484 0,0.2968 0,0.44521 z m 0,11.01547 c 0,0.36985 0,0.7397 0,1.10954 4.46163,0 8.92325,0 13.38488,0 -0.14132,-0.51823 -0.28251,-1.0365 -0.42377,-1.55475 -4.32037,0 -8.64074,0 -12.96111,0 0,0.1484 0,0.2968 0,0.44521 z" />
    </clipPath>
  </defs>
  <g
     inkscape:groupmode="layer"
     id="layer2"
     inkscape:label="bg"
     transform="translate(-7.7299585,-161.50086)" />
  <g
     inkscape:label="Layer 1"
     inkscape:groupmode="layer"
     id="layer1"
     transform="translate(-7.7299585,-161.50086)">
    <g
       id="g5"
       inkscape:label="backup"
       sodipodi:insensitive="true"
       style="display:none">
      <path
         d="m 247.79883,95.103516 41.08789,133.914064 h 52.24609 l 13.82422,-46.66602 c 1.35267,-4.48073 2.61914,-9.04746 3.80274,-13.69726 1.05693,-4.22775 2.11298,-8.50172 3.16992,-12.79688 1.05697,4.29531 2.1149,8.56898 3.17187,12.79688 1.26813,4.6498 2.53656,9.21653 3.80469,13.69726 l 13.82227,46.66602 h 52.24804 L 476.06445,95.103516 H 421.78711 L 413.92383,131.625 c -2.11355,10.14504 -4.18389,20.67024 -6.21289,31.57617 -1.00881,5.6581 -2.06024,11.18752 -3.0918,16.77735 -1.2931,-5.58994 -2.56695,-11.11914 -3.88281,-16.77735 -2.45172,-10.99047 -4.94616,-21.51567 -7.48242,-31.57617 L 383.99609,95.103516 H 339.86523 L 330.60742,131.625 c -2.53626,10.0605 -5.07116,20.5857 -7.60742,31.57617 -1.24873,5.55471 -2.49736,10.98179 -3.74609,16.4707 -1.07651,-5.48895 -2.15397,-10.91594 -3.23047,-16.4707 -2.11355,-10.99047 -4.31112,-21.51567 -6.59375,-31.57617 l -8.36914,-36.521484 z"
         style="font-weight:900;font-size:259.715px;font-family:Inter;-inkscape-font-specification:'Inter Heavy';stroke-width:0;paint-order:markers fill stroke"
         id="path5" />
      <path
         d="m 175.38672,92.058594 c -13.69584,0 -25.82675,3.001411 -36.39453,9.003906 -10.48324,5.91796 -18.72602,14.16074 -24.72852,24.72852 -6.00249,10.48323 -9.0039,22.57369 -9.0039,36.26953 0,13.6113 3.00141,25.70175 9.0039,36.26953 6.08704,10.56778 14.49947,18.85297 25.23633,24.85547 10.73686,5.91795 23.03742,8.87695 36.90234,8.87695 11.75137,0 22.48858,-1.98745 32.21094,-5.96094 9.8069,-4.05802 17.92245,-9.59627 24.34766,-16.61328 6.42521,-7.017 10.44057,-15.09015 12.04687,-24.2207 h -44.89062 c -0.92996,2.36718 -2.41044,4.43946 -4.43946,6.21484 -2.02901,1.69085 -4.52344,2.99973 -7.48242,3.92969 -2.87443,0.92997 -6.12835,1.39648 -9.76367,1.39648 -4.98799,0 -9.30023,-0.93108 -12.93555,-2.79101 -3.55077,-1.85993 -6.29771,-4.56447 -8.24218,-8.11524 -1.72718,-3.29735 -2.61697,-7.20414 -2.74024,-11.66797 h 91.00195 v -13.56835 c 0,-10.06053 -1.73298,-19.27681 -5.19921,-27.64649 -3.38169,-8.36968 -8.20091,-15.59655 -14.45704,-21.68359 -6.25612,-6.17158 -13.65264,-10.90598 -22.1914,-14.203128 -8.53877,-3.381688 -17.9671,-5.074218 -28.28125,-5.074218 z m 1.39648,36.269526 c 4.73437,0 8.74973,0.88868 12.04688,2.66407 3.29715,1.77538 5.83399,4.35268 7.60937,7.73437 1.11584,2.07227 1.83938,4.46158 2.25391,7.10156 h -43.82227 c 0.41453,-2.63998 1.14003,-5.02929 2.25586,-7.10156 1.77539,-3.38169 4.31027,-5.95899 7.60742,-7.73437 3.38169,-1.77539 7.39902,-2.66407 12.04883,-2.66407 z"
         style="font-weight:900;font-size:259.715px;font-family:Inter;-inkscape-font-specification:'Inter Heavy';stroke-width:0;paint-order:markers fill stroke"
         id="path4" />
      <path
         d="m -54.779297,40.066406 70.38086,124.531254 v 64.41992 H 66.582031 V 164.59766 L 134.93359,40.066406 H 74.951172 L 49.460937,93.074219 c -2.11356,4.396204 -4.141462,8.791291 -6.085937,13.187501 -0.680063,1.60742 -1.360953,3.21484 -2.041016,4.82226 -0.761403,-1.60722 -1.498781,-3.21504 -2.271484,-4.82226 -2.029018,-4.39621 -4.141742,-8.791297 -6.339844,-13.187501 L 5.5839844,40.066406 Z"
         style="font-weight:900;font-size:259.715px;font-family:Inter;-inkscape-font-specification:'Inter Heavy';stroke-width:0;paint-order:markers fill stroke"
         id="path3" />
    </g>
    <g
       id="g6"
       inkscape:label="&gt;&gt;="
       transform="matrix(4.3692916,0,0,4.4922611,-173.06539,-386.45274)"
       clip-path="url(#clipPath183)"
       style="display:inline;stroke-width:0.999921;stroke-dasharray:none">
      <path
         d="m 62.979683,149.33005 -7.734916,11.27747 4.291775,4.94169 6.3131,-9.38705 h 20.691256 0.82838 19.972252 v -6.83211 H 87.369278 86.540898 70.445225 64.016677 Z"
         style="font-weight:bold;font-size:40px;line-height:0;font-family:'Fira Code';-inkscape-font-specification:'Fira Code weight=450';fill:#000000;fill-opacity:1;stroke-width:0.999921;stroke-dasharray:none;paint-order:markers fill stroke"
         id="path6"
         inkscape:label="&gt;_" />
      <path
         d="m 59.797108,129.15914 -4.296899,4.81519 7.74415,10.98884 h 1.038232 6.436223 16.114889 0.829369 19.996098 v -6.65726 H 87.663072 86.833703 66.117745 Z"
         style="font-weight:bold;font-size:40px;line-height:0;font-family:'Fira Code';-inkscape-font-specification:'Fira Code weight=450';fill:#000000;fill-opacity:1;stroke-width:0.999921;stroke-dasharray:none;paint-order:markers fill stroke"
         id="path2"
         inkscape:label="&gt;-" />
      <path
         d="m 45.677567,128.48117 -4.298926,4.8152 9.427221,13.37001 -9.427221,13.37001 4.298926,4.8152 12.562194,-18.18521 z"
         style="font-weight:bold;font-size:40px;line-height:0;font-family:'Fira Code';-inkscape-font-specification:'Fira Code weight=450';opacity:1;mix-blend-mode:normal;fill:#000000;fill-opacity:1;stroke-width:0.999921;stroke-dasharray:none;paint-order:markers fill stroke"
         id="path1"
         inkscape:label="&gt;" />
    </g>
  </g>
  <g
     inkscape:groupmode="layer"
     id="layer3"
     inkscape:label="Letters"
     style="display:inline"
     transform="translate(-7.7299585,-161.50086)">
    <g
       id="g1"
       inkscape:label="yew-letters"
       transform="matrix(4.4922611,0,0,4.4922611,-157.59205,-386.61721)"
       style="display:inline;stroke:none;stroke-width:0.999942;stroke-dasharray:none;stroke-opacity:1;paint-order:stroke markers fill">
      <path
         d="m 86.102561,127.10106 v 29.10157 h 22.539059 v -6.875 H 94.227561 v -4.33594 h 13.300779 v -6.64063 H 94.227561 v -4.375 h 12.144529 l 5.89258,22.22657 h 8.92578 l 3.30078,-13.4375 c 0.25456,-1.01826 0.52134,-2.26819 0.80078,-3.73438 0.29091,1.46228 0.55945,2.7182 0.80079,3.73438 l 3.30078,13.4375 h 8.92578 l 7.71484,-29.10157 h -8.82812 l -2.34375,11.28907 c -0.28645,1.41926 -0.56642,2.84507 -0.83985,4.27734 -0.20702,1.12824 -0.40668,2.25653 -0.60547,3.38477 -0.22161,-1.12827 -0.44552,-2.2565 -0.68359,-3.38477 -0.28646,-1.43227 -0.59245,-2.85808 -0.91797,-4.27734 l -2.57812,-11.28907 h -7.89063 l -2.57812,11.28907 c -0.32552,1.41926 -0.63802,2.84507 -0.9375,4.27734 -0.2306,1.14255 -0.45361,2.28519 -0.67578,3.42774 -0.20121,-1.14257 -0.40364,-2.28517 -0.61329,-3.42774 -0.2604,-1.43227 -0.54037,-2.85808 -0.83984,-4.27734 l -2.32422,-11.28907 h -4.73633 -4.09179 z"
         style="font-weight:900;font-size:40px;font-family:Inter;-inkscape-font-specification:'Inter Heavy';display:inline;stroke:none;stroke-width:0.999942;stroke-dasharray:none;stroke-opacity:1;paint-order:stroke markers fill"
         id="path100"
         inkscape:label="ew" />
      <path
         d="m 55.49488,122.01385 12.73493,22.5328 v 11.65647 h 9.22422 v -11.65647 l 12.367793,-22.5328 h -10.85337 l -4.612109,9.59135 c -0.38243,0.79547 -0.749565,1.59091 -1.1014,2.38637 l -0.369427,0.87194 c -0.137686,-0.29063 -0.271002,-0.5813 -0.41073,-0.87194 -0.367131,-0.79546 -0.749564,-1.5909 -1.147292,-2.38637 l -4.910404,-9.59135 z"
         style="font-weight:900;font-size:40px;font-family:Inter;-inkscape-font-specification:'Inter Heavy';display:inline;stroke:none;stroke-width:0.999942;stroke-dasharray:none;stroke-opacity:1;paint-order:stroke markers fill"
         id="path10"
         inkscape:label="y" />
    </g>
  </g>
  <g
     inkscape:groupmode="layer"
     id="g115"
     inkscape:label="Letters copy"
     transform="translate(-7.7299585,-161.50086)" />
</svg>
